 http://leetleech.org/images/71840752606150889989.jpg

The Six Wives of Henry Lefay 2009 R5 XviD AC3-NiT3MaR3







General
Format : AVI
File size : 765 MiB
Duration : 1h 31mn
Overall bit rate :  1 175 Kbps
IMDb Rating : 5.1/10   465 votes
Genre :     Comedy | Drama | Romance
Release :  7 February 2011  (UK)
IMDb Link: http://www.imdb.com/title/tt1074214/Link:
Source :  R5 DVD9





Video
Format : MPEG-4 Visual
Format profile : Advanced Simple@L5
Format settings, QPel : No
Format settings, GMC : No warppoints
Format settings, Matrix : Default (H.263)
Muxing mode : Packed bitstream
Codec ID : XVID
Bit rate : 909 Kbps
Width : 720 pixels
Height : 400 pixels
Display aspect ratio : 16:9
Frame rate : 25.000 fps
Chroma subsampling : 4:2:0
Bit depth : 8 bits
Scan type : Progressive
Bits/(Pixel*Frame) : 0.136
Stream size : 592 MiB (77%)



Audio
Format : AC3
Bit rate mode : Constant
Bit rate : 256 Kbps
Channel(s) : 6 channels
Sampling rate : 48.0 KHz
Stream size : 167 MiB (22%)







A grieving daughter tries to arrange her father's funeral, while
putting up with all of his ex-wives.



Tagline:
N/A




CAST:
Elisha Cuthbert ... Barbara 'Barbie' Lefay
Jenna Dewan ... Sarah Jane
Tim Allen ... Henry Lefay
Eric Christian Olsen Lloyd
Kelli Garner
Chris Klein ... Stevie
Lindsay Sloane ... Autumn
Andie MacDowell ... Kate
Jenna Elfman ... Ophelia
Paz Vega ... Veronica
Edward Herrmann ... Goodenough
Larry Miller ... Lipschutt
S. Epatha Merkerson. Effa Devareaux
Barbara Barrie ... Grandma Mae
Connor Fox ... Best Man




Personal Greetz:

Noir | Joshua08 | RaGe | xXTHORNXx |

bigimac |  kempas | KaN1vE | mike160 |

Lungbuster | skillz






screens:
 
http://leetleech.org/images/83813095672323109309.png
 
http://leetleech.org/images/46915614669371987249.png
